<?xml version="1.0" encoding="UTF-8" standalone="no"?>
<!-- Generator: Adobe Illustrator 16.0.0, SVG Export Plug-In . SVG Version: 6.00 Build 0)  -->

<svg
   xmlns:dc="http://purl.org/dc/elements/1.1/"
   xmlns:cc="http://creativecommons.org/ns#"
   xmlns:rdf="http://www.w3.org/1999/02/22-rdf-syntax-ns#"
   xmlns:svg="http://www.w3.org/2000/svg"
   xmlns="http://www.w3.org/2000/svg"
   xmlns:sodipodi="http://sodipodi.sourceforge.net/DTD/sodipodi-0.dtd"
   xmlns:inkscape="http://www.inkscape.org/namespaces/inkscape"
   version="1.1"
   x="0px"
   y="0px"
   width="200"
   height="164.97745"
   viewBox="0 0 200 164.97744"
   enable-background="new 0 0 822.047 595.275"
   xml:space="preserve"
   id="svg2"
   inkscape:version="0.48.4 r9939"
   sodipodi:docname="農委會會徽 [轉換].svg"><metadata
   id="metadata206"><rdf:RDF><cc:Work
       rdf:about=""><dc:format>image/svg+xml</dc:format><dc:type
         rdf:resource="http://purl.org/dc/dcmitype/StillImage" /></cc:Work></rdf:RDF></metadata><defs
   id="defs204" /><sodipodi:namedview
   pagecolor="#ffffff"
   bordercolor="#666666"
   borderopacity="1"
   objecttolerance="10"
   gridtolerance="10"
   guidetolerance="10"
   inkscape:pageopacity="0"
   inkscape:pageshadow="2"
   inkscape:window-width="1440"
   inkscape:window-height="747"
   id="namedview202"
   showgrid="false"
   fit-margin-top="0"
   fit-margin-left="0"
   fit-margin-right="0"
   fit-margin-bottom="0"
   inkscape:zoom="0.3964554"
   inkscape:cx="280.38907"
   inkscape:cy="212.58495"
   inkscape:window-x="-8"
   inkscape:window-y="-8"
   inkscape:window-maximized="1"
   inkscape:current-layer="svg2" />


<g
   id="g174"
   transform="matrix(3.8750245,0,0,3.8750245,-506.21159,-639.24601)">
	<path
   d="m 181.254,173.353 c -0.247,-0.154 -0.572,-0.17 -0.841,-0.014 -0.18,0.104 -0.304,0.264 -0.365,0.447 l -0.002,-0.002 c 0,0 -0.217,0.572 0.298,1.086 0.241,0.244 0.513,0.379 0.692,0.498 0.153,0.104 0.445,0.307 0.561,0.391 0.127,0.094 0.34,0.264 0.378,0.293 l 0.004,0.01 c 0,0 -0.001,-0.006 -0.002,-0.008 0.002,0.002 0.006,0.004 0.006,0.004 l -0.006,-0.006 c -0.007,-0.051 -0.047,-0.32 -0.063,-0.473 -0.015,-0.143 -0.046,-0.5 -0.059,-0.684 -0.016,-0.215 0.003,-0.518 -0.085,-0.848 -0.103,-0.386 -0.332,-0.591 -0.516,-0.694 z"
   id="path176"
   inkscape:connector-curvature="0"
   style="fill:#009944" />
	<path
   d="m 177.582,171.786 c 0,0 0.664,0.514 0.795,1.521 0.107,0.818 -0.306,1.434 -0.306,1.434 0,0 -0.636,-0.729 -0.799,-1.551 -0.205,-1.017 0.31,-1.404 0.31,-1.404 z"
   id="path178"
   inkscape:connector-curvature="0"
   style="fill:#009944" />
	<path
   d="m 134.907,199.546 c -4.925,-8.529 1.108,-21.23 13.472,-28.367 10.845,-6.262 22.954,-6.164 29.09,-0.299 -6.134,-6.742 -19.247,-7.059 -30.958,-0.295 -12.899,7.445 -19.213,20.654 -14.105,29.5 4.813,8.338 18.045,9.822 30.344,3.744 -11.416,5.098 -23.375,3.459 -27.843,-4.283 z"
   id="path180"
   inkscape:connector-curvature="0"
   style="fill:#009944" />
	<path
   d="m 174.176,167.925 c 0,0 0.608,0.357 1.408,0.197 1.148,-0.229 1.685,-1.109 2.13,-1.449 -0.559,0.018 -1.529,-0.332 -2.567,0.213 -0.723,0.379 -0.971,1.039 -0.971,1.039 z"
   id="path182"
   inkscape:connector-curvature="0"
   style="fill:#009944" />
	<path
   d="m 176.904,169.423 c 0,0 0.444,0.449 1.178,0.498 1.051,0.068 1.724,-0.574 2.19,-0.766 -0.491,-0.115 -1.252,-0.645 -2.282,-0.414 -0.718,0.162 -1.086,0.682 -1.086,0.682 z"
   id="path184"
   inkscape:connector-curvature="0"
   style="fill:#009944" />
	<path
   d="m 178.976,171.786 c 0,0 0.395,0.332 1.098,0.313 1.01,-0.029 1.707,-0.607 2.173,-0.801 -0.466,-0.057 -1.157,-0.428 -2.167,-0.158 -0.705,0.193 -1.104,0.646 -1.104,0.646 z"
   id="path186"
   inkscape:connector-curvature="0"
   style="fill:#009944" />
	<path
   d="m 170.175,166.446 c 0,0 0.667,0.393 1.549,0.219 1.263,-0.252 1.853,-1.221 2.344,-1.596 -0.616,0.018 -1.684,-0.363 -2.824,0.234 -0.796,0.417 -1.069,1.143 -1.069,1.143 z"
   id="path188"
   inkscape:connector-curvature="0"
   style="fill:#009944" />
	<path
   d="m 172.035,167.948 c 0,0 0.925,0.283 1.239,1.471 0.255,0.955 -0.187,1.938 -0.187,1.938 0,0 -0.921,-0.563 -1.25,-1.496 -0.406,-1.155 0.198,-1.913 0.198,-1.913 z"
   id="path190"
   inkscape:connector-curvature="0"
   style="fill:#009944" />
	<path
   d="m 175.367,169.677 c 0,0 0.736,0.463 0.734,1.564 -0.001,0.891 -0.615,1.645 -0.615,1.645 0,0 -0.67,-0.707 -0.737,-1.594 -0.083,-1.096 0.618,-1.615 0.618,-1.615 z"
   id="path192"
   inkscape:connector-curvature="0"
   style="fill:#009944" />
	<path
   d="m 168.727,166.769 c 0,0 1.018,0.313 1.364,1.613 0.282,1.053 -0.207,2.135 -0.207,2.135 0,0 -1.013,-0.619 -1.375,-1.648 -0.446,-1.268 0.218,-2.1 0.218,-2.1 z"
   id="path194"
   inkscape:connector-curvature="0"
   style="fill:#009944" />
	<path
   d="m 158.833,199.075 c -0.027,0.025 -0.053,0.053 -0.077,0.078 -1.55,1.605 -3.809,2.863 -6.466,3.432 -5.596,1.188 -10.834,-1.152 -11.701,-5.229 -0.2,-0.941 -0.149,-1.893 0.117,-2.816 0.835,-2.893 4.124,-6.441 8.751,-9.111 2.533,-1.463 5.131,-2.287 7.368,-2.914 3.611,-1.016 5.986,-2.166 7.677,-4.1 l 0.308,-0.375 c 0.465,-0.619 0.871,-1.506 0.988,-2.375 0.279,-2.037 -1.205,-3.381 -3.471,-3.338 -0.439,0.008 -1.249,0.105 -1.708,0.215 -2.913,0.699 -5.063,2.83 -6.527,4.514 -0.332,0.381 -0.62,0.855 -1.125,1.146 -1.198,0.691 -2.622,0.469 -3.183,-0.5 -0.271,-0.473 -0.294,-1.039 -0.093,-1.572 0.362,-0.955 1.078,-1.895 2.058,-2.756 -1.077,0.459 -2.148,0.977 -3.202,1.582 -10,5.775 -14.82,16.146 -10.768,23.168 3.732,6.465 13.681,7.816 23.04,3.492 -0.998,-0.498 -1.748,-1.42 -1.986,-2.541 z"
   id="path196"
   inkscape:connector-curvature="0"
   style="fill:#009944" />
	<path
   d="m 173.993,177.216 c -0.609,-1.053 -1.4,-1.957 -2.311,-2.738 0.109,0.461 0.186,0.934 0.186,1.426 0,0.85 -0.169,1.648 -0.482,2.385 -1.272,3.01 -2.901,7.029 -4.536,11.516 -1.103,3.031 -2.085,5.898 -2.894,8.406 -0.033,0.105 -0.049,0.223 -0.049,0.338 0,0.447 0.265,0.826 0.641,1.008 9.089,-5.894 13.317,-15.638 9.445,-22.341 z"
   id="path198"
   inkscape:connector-curvature="0"
   style="fill:#009944" />
	<path
   d="m 161.247,184.153 c 0.406,-0.096 0.756,-0.158 0.928,-0.141 0.161,0.016 0.336,0.203 0.385,0.277 0.073,0.084 0.187,0.662 0.363,0.707 0.167,0.039 0.466,0.113 0.5,0.289 0.035,0.174 0.139,0.182 0.174,0.313 0.044,0.139 -0.212,0.551 -0.214,0.859 -0.002,0.309 -0.169,0.57 -0.297,0.859 -0.112,0.225 -1.082,1.516 -1.173,1.713 -0.116,0.244 -0.944,1.434 -1.05,1.83 -0.116,0.408 -0.476,0.424 -0.688,1.188 -0.21,0.766 -0.389,1.242 -0.647,1.619 -0.255,0.365 -1.917,2.117 -2.438,2.516 -0.539,0.396 -1.633,1.145 -1.802,1.533 -0.156,0.4 -0.259,0.555 -0.498,1.029 -0.234,0.467 -0.211,1.154 -0.468,1.135 -0.267,-0.018 -0.517,0.113 -0.555,-0.092 -0.052,-0.201 0.078,-0.838 -0.121,-1.709 -0.177,-0.857 -1.466,-1.943 -1.55,-2.965 -0.083,-1.035 0.25,-2.395 0.301,-3.189 0.068,-0.807 0.354,-1.836 1.295,-2.758 0.933,-0.924 2.451,-1.99 3.435,-2.852 0.964,-0.871 1.97,-1.592 2.52,-1.691 0.333,-0.058 0.998,-0.308 1.6,-0.47 z"
   id="path200"
   inkscape:connector-curvature="0"
   style="fill:#009944" />
</g>
</svg>